<svg width="110" height="109" viewBox="0 0 110 109" fill="none" xmlns="http://www.w3.org/2000/svg">
<g clip-path="url(#clip0_4098_528)">
<path d="M54.525 108.925C84.6384 108.925 109.05 84.5413 109.05 54.4625C109.05 24.3837 84.6384 0 54.525 0C24.4117 0 0 24.3837 0 54.4625C0 84.5413 24.4117 108.925 54.525 108.925Z" fill="white"/>
<path d="M54.5249 107.465C83.8312 107.465 107.589 83.7351 107.589 54.4624C107.589 25.1897 83.8312 1.45947 54.5249 1.45947C25.2186 1.45947 1.46118 25.1897 1.46118 54.4624C1.46118 83.7351 25.2186 107.465 54.5249 107.465Z" fill="#0F2F87"/>
<path d="M54.5251 106.006C83.0244 106.006 106.128 82.9288 106.128 54.4622C106.128 25.9957 83.0244 2.91895 54.5251 2.91895C26.0258 2.91895 2.92261 25.9957 2.92261 54.4622C2.92261 82.9288 26.0258 106.006 54.5251 106.006Z" fill="white"/>
<path d="M54.525 83.6401C30.036 71.357 18.4258 50.1892 20.734 19.4578C29.4907 11.0234 41.399 5.83496 54.525 5.83496C67.651 5.83496 79.5592 11.0234 88.3159 19.4578C90.6242 50.1892 79.014 71.357 54.525 83.6401Z" fill="#0F2F87"/>
<path d="M54.525 58.5475C51.4789 56.7793 48.7599 54.7859 46.4335 52.6147C43.4273 49.8117 40.9483 46.5984 39.069 43.0656C37.1569 39.4711 35.7938 35.4155 35.0196 31.0113C34.3689 27.3114 34.1108 23.2703 34.2526 18.975C40.3921 15.464 47.3822 13.6123 54.5286 13.6123C61.675 13.6123 68.6651 15.464 74.8047 18.975C74.9464 23.2667 74.6883 27.3114 74.0377 31.0113C73.2598 35.4155 71.8967 39.4711 69.9846 43.0656C68.1053 46.5984 65.6299 49.8117 62.6201 52.6147C60.2901 54.7859 57.5711 56.7793 54.525 58.5475Z" fill="white"/>
<path d="M40.9482 54.002C39.0544 53.4101 37.2042 52.6767 35.4703 51.74C32.9803 50.3711 30.4576 48.4976 29.5162 45.7164C28.5529 43.0042 29.9705 40.557 31.9771 38.7852C32.1697 39.3552 32.4496 40.1612 32.6386 40.6587C32.5041 40.7676 32.3769 40.8801 32.2533 40.9891C31.0429 42.0711 30.2832 43.5125 30.6103 45.1536C31.53 49.3327 37.2187 52.4443 40.9482 54.002Z" fill="white"/>
<path d="M40.9482 54.0019C35.5538 53.0253 27.8695 50.4437 26.9098 44.166C26.4991 41.2577 27.9167 38.4656 29.8505 36.396C30.1813 36.0184 30.5557 35.6517 30.9556 35.2959C31.0864 35.826 31.3191 36.6393 31.4936 37.2493C29.2689 39.3007 27.4987 42.1618 28.4002 45.2734C28.9091 47.1034 30.1413 48.6428 31.599 49.8156C34.3107 51.9542 37.6403 53.1632 40.9482 53.9983V54.0019Z" fill="white"/>
<path d="M78.2288 34.7619C81.6021 37.3507 82.7762 41.2865 79.9373 44.7649C77.7708 47.3537 74.6047 48.8641 71.4277 49.9424C71.9584 49.1981 72.4674 48.4393 72.9472 47.6659C74.5139 47.1612 76.026 46.504 77.4364 45.6363C78.4069 45.0118 79.323 44.2638 80.0027 43.3343C82.2091 40.3498 80.6352 37.0748 78.2288 34.7583V34.7619Z" fill="white"/>
<path d="M78.2724 48.937C75.179 51.5149 71.4641 53.1742 67.6619 54.474C68.4252 53.6788 69.1558 52.8546 69.8465 52.0087V52.0159C73.3652 50.7488 76.9238 49.1294 79.5483 46.3845C82.22 43.5997 82.9616 39.8889 80.4134 36.7519C79.7919 35.9749 79.0358 35.325 78.2252 34.7622C84.4701 38.7343 83.5432 44.5727 78.2652 48.937H78.2724Z" fill="white"/>
<path d="M59.9775 48.8239C59.5231 50.0003 58.9706 51.0678 58.3381 51.9428C58.0691 52.3168 57.7856 52.6545 57.4912 52.9558C56.597 53.8635 55.5901 54.4009 54.525 54.4009C53.46 54.4009 52.4531 53.8635 51.5588 52.9558C51.2644 52.6581 50.9809 52.3168 50.7119 51.9428C50.0794 51.0642 49.5269 50.0003 49.0725 48.8203C49.2979 49.63 49.5669 50.3997 49.8649 51.1077V58.2096H51.5588V54.0124C52.4676 55.098 53.4927 55.6717 54.525 55.6717C55.5574 55.6717 56.5824 55.098 57.4912 54.0124V58.2133H59.1851V51.1114C59.4832 50.4034 59.7485 49.6336 59.9775 48.8276V48.8239Z" fill="#0F2F87"/>
<path d="M64.6848 42.2739C64.6885 42.125 64.6921 41.9762 64.6921 41.8273C64.6921 36.2177 60.1374 31.6719 54.5214 31.6719C48.9053 31.6719 44.3506 36.2177 44.3506 41.8273C44.3506 41.9762 44.3543 42.125 44.3615 42.2739C43.809 42.8803 43.5037 43.5447 43.5037 44.2418C43.5037 44.5214 43.5509 44.7937 43.6454 45.0588C44.0925 44.9607 44.616 44.87 45.1976 44.7864V47.6294C45.8991 47.6294 46.4698 47.0593 46.4698 46.3586V44.6267C46.6879 44.6013 46.9133 44.5795 47.1459 44.5577L47.3895 46.5147C47.4476 46.9722 47.7457 47.3498 48.1456 47.5205L47.8947 44.4887L48.4255 45.7777C48.5054 45.3783 48.5745 44.928 48.6326 44.4342C50.392 44.3108 52.3949 44.2418 54.5214 44.2418C56.6478 44.2418 58.6507 44.3108 60.4101 44.4342C60.4646 44.928 60.5373 45.3783 60.6173 45.7777L61.148 44.4887L60.8971 47.5205C61.3006 47.3462 61.5987 46.9686 61.6532 46.5111L61.8968 44.5541C62.1294 44.5759 62.3511 44.5976 62.5729 44.6231V46.355C62.5729 47.0557 63.1436 47.6258 63.8451 47.6258V44.7828C64.4304 44.8663 64.9502 44.9571 65.3973 45.0551C65.4918 44.7901 65.539 44.5178 65.539 44.2382C65.539 43.5411 65.2337 42.8766 64.6812 42.2703L64.6848 42.2739ZM47.7457 41.8164C51.995 40.5384 57.0549 40.5347 61.3043 41.8164C56.7751 41.4969 52.2786 41.4933 47.7457 41.8164Z" fill="#0F2F87"/>
<path d="M46.8152 39.1221C46.568 39.467 46.3099 39.7756 46.0373 40.0515C45.2158 40.8866 44.2888 41.3804 43.311 41.3804C42.3332 41.3804 41.4063 40.8866 40.5848 40.0515C40.3122 39.7756 40.0541 39.4633 39.8069 39.1221C39.2253 38.316 38.7164 37.3393 38.302 36.2573C38.5128 36.998 38.7564 37.7024 39.029 38.3559V44.8515L40.5884 47.3931V41.0246C41.4245 42.0195 42.3659 42.5496 43.3147 42.5496C44.2634 42.5496 45.2121 42.0195 46.0482 41.0173C46.2954 40.7232 46.5353 40.3856 46.7643 40.0152C47.3931 38.9841 47.9239 37.6879 48.3273 36.261C47.9093 37.3429 47.4004 38.3196 46.8224 39.1257L46.8152 39.1221Z" fill="#0F2F87"/>
<path d="M36.8842 30.7529C36.5825 30.9962 36.408 31.3847 36.4626 31.8022L36.7534 34.1369C36.8115 34.5944 37.1314 34.9647 37.5494 35.1027L36.8842 30.7529Z" fill="#0F2F87"/>
<path d="M49.7341 30.7529L49.0688 35.1027C49.4905 34.9647 49.8104 34.598 49.8649 34.1369L50.1557 31.8022C50.2066 31.3847 50.0321 30.9962 49.7341 30.7529Z" fill="#0F2F87"/>
<path d="M43.3073 21.1533C39.4361 21.1533 36.2954 23.4044 36.2954 27.2749C36.2954 27.776 36.3499 28.2806 36.4481 28.7781L36.8806 30.7532L37.7167 33.3929C37.9203 32.3435 38.0475 30.9094 38.0475 29.3263C38.0475 28.6147 38.022 27.9393 37.9748 27.3112C39.9159 29.2573 43.5836 29.7765 46.0299 29.0794C44.1143 29.2791 42.1623 28.818 40.5193 27.8413C40.4102 27.7723 40.3012 27.6997 40.1921 27.6235C41.0936 27.9648 42.1587 28.1608 43.3001 28.1608C45.8191 28.1608 47.9638 27.2059 48.7853 25.8661C48.6435 26.8356 48.5563 28.0301 48.5563 29.33C48.5563 30.9094 48.6835 32.3435 48.8871 33.3965L49.7231 30.7569L50.1593 28.7817C50.2611 28.2843 50.312 27.7796 50.312 27.2785C50.312 23.4117 47.175 21.157 43.3001 21.157L43.3073 21.1533Z" fill="#0F2F87"/>
<path d="M65.7426 21.1533C65.7426 21.1533 65.7099 21.1533 65.6917 21.1533C65.6299 21.1533 65.5682 21.1533 65.5064 21.1533C61.7441 21.244 58.7307 23.4806 58.7307 27.2676V40.9885L62.2349 41.9361V39.0424C63.2527 40.2442 64.4522 40.9885 65.739 40.9885C66.7095 40.9885 67.6328 40.5637 68.4652 39.8412V47.622L72.7509 39.8557V27.2676C72.7509 23.4007 69.6139 21.146 65.739 21.146L65.7426 21.1533ZM69.2468 38.2036C68.2144 39.213 67.0185 39.8266 65.7426 39.8266C64.4667 39.8266 63.2672 39.2094 62.2385 38.2036V27.863C63.6162 27.5036 64.7176 26.8319 65.2955 25.9968C65.4082 26.5523 65.2265 27.155 64.9211 27.6524C64.5467 28.2697 63.9978 28.7889 63.4053 29.2173C64.7321 28.6655 66.117 27.5798 66.2334 26.0621C66.8222 26.8682 67.9018 27.5108 69.2468 27.863V38.2036Z" fill="#0F2F87"/>
<path d="M54.525 61.3615L53.3 60.6498C50.0975 58.7909 47.2259 56.685 44.7686 54.3939C41.5626 51.4057 38.9199 47.9782 36.9134 44.2094C34.8814 40.3898 33.4347 36.0945 32.6132 31.4362C31.9334 27.5766 31.6608 23.3576 31.8099 18.8989L31.8535 17.5446L33.0312 16.8693C39.5342 13.1513 46.9642 11.187 54.5177 11.187C62.0712 11.187 69.5012 13.1513 76.0042 16.8693L77.1819 17.5446L77.2256 18.8989C77.3746 23.3576 77.102 27.573 76.4222 31.4362C75.6007 36.0945 74.154 40.3898 72.122 44.2094C70.1155 47.9782 67.4765 51.4057 64.2704 54.3939C61.8132 56.685 58.9415 58.7909 55.7391 60.6498L54.5141 61.3615H54.525ZM53.7907 59.8111L54.525 60.2359L55.2592 59.8111C58.3963 57.9884 61.2097 55.9261 63.6161 53.6823C66.7422 50.7667 69.3194 47.4264 71.2751 43.752C73.2598 40.0231 74.6702 35.8222 75.4771 31.2655C76.146 27.4713 76.4113 23.3213 76.2659 18.9279L76.2405 18.1146L75.5317 17.7116C69.1777 14.0772 61.9149 12.1564 54.5286 12.1564C47.1459 12.1564 39.8832 14.0772 33.5256 17.7116L32.8167 18.1146L32.7913 18.9279C32.6459 23.3213 32.9113 27.4713 33.5801 31.2655C34.3834 35.8222 35.7974 40.0231 37.7785 43.752C39.7342 47.4264 42.3114 50.7667 45.4375 53.6823C47.8438 55.9261 50.6537 57.9884 53.7943 59.8111H53.7907Z" fill="white"/>
<path d="M60.0865 7.62109H48.9634V19.414C48.9634 20.26 49.4614 21.0225 50.2356 21.3674L54.5249 23.1828L58.8142 21.2839C59.5885 20.9426 60.0865 20.1765 60.0865 19.3305V7.62109Z" fill="#0F2F87"/>
<path d="M50.4174 19.3269H52.7038C52.8637 20.191 53.3254 20.9971 54.056 21.5817C54.2487 21.7015 54.4086 21.8649 54.5213 22.0609C54.634 21.8649 54.7939 21.7015 54.9866 21.5817C55.7172 20.9971 56.1789 20.191 56.3388 19.3269H58.6252V9.41473C57.4038 10.0792 56.5823 11.2955 56.4188 12.6752L56.0771 15.5871C56.4442 15.5036 56.8113 15.736 56.8949 16.1027C56.9786 16.4694 56.7459 16.8362 56.3788 16.9197L56.0189 16.9995C55.9789 16.916 55.9353 16.8362 55.8881 16.7526C55.2119 15.5908 54.8775 14.2655 54.9248 12.9221L55.0338 9.82865C55.052 9.29855 54.8666 8.78297 54.514 8.38721C54.1614 8.78297 53.976 9.29855 53.9942 9.82865L54.1033 12.9221C54.1505 14.2655 53.8161 15.5908 53.14 16.7526C53.0927 16.8325 53.0491 16.916 53.0091 16.9995L52.6493 16.9197C52.2821 16.8362 52.0495 16.4694 52.1331 16.1027C52.2167 15.736 52.5838 15.5036 52.951 15.5871L52.6093 12.6752C52.4457 11.2955 51.6242 10.0792 50.4028 9.41473V19.3269H50.4174ZM51.4897 15.9103H51.1044V10.8344C51.5697 11.3754 51.8605 12.0435 51.9441 12.7515L52.2131 15.0244C51.8387 15.2059 51.5878 15.5363 51.4897 15.9103ZM53.4453 17.7947L53.5144 17.8092C53.9033 17.8964 54.1832 18.2449 54.1832 18.6443H53.329C53.329 18.3611 53.369 18.0743 53.449 17.7947H53.4453ZM55.7208 18.6443H54.8666C54.8666 18.2449 55.1429 17.9 55.5355 17.8092L55.6045 17.7947C55.6845 18.0743 55.7245 18.3575 55.7245 18.6443H55.7208ZM55.3028 17.0976C55.3137 17.1157 55.3246 17.1375 55.3355 17.1557C55.0084 17.2392 54.7248 17.428 54.5213 17.6785C54.3177 17.428 54.0378 17.2428 53.7071 17.1557C53.718 17.1375 53.7289 17.1157 53.7398 17.0976C54.0778 16.5166 54.3395 15.8921 54.5213 15.2422C54.6994 15.8921 54.9611 16.5166 55.3028 17.0976ZM57.9455 10.8344V15.9103H57.5602C57.462 15.5363 57.2112 15.2059 56.8368 15.0244L57.1058 12.7515C57.1894 12.0435 57.4838 11.3754 57.9455 10.8344ZM57.9455 18.6443H56.4042C56.4042 18.3103 56.3606 17.9726 56.2697 17.6458L56.5351 17.5877C56.9386 17.497 57.2839 17.2283 57.4656 16.8543C57.5056 16.7708 57.5383 16.6837 57.5602 16.5965H57.9455V18.6479V18.6443ZM54.8666 20.772V19.3269H55.6445C55.5245 19.857 55.2628 20.3581 54.8666 20.772ZM53.4053 19.3269H54.1832V20.772C53.787 20.3581 53.5253 19.857 53.4053 19.3269ZM51.1044 18.6443V16.5929H51.4897C51.5115 16.68 51.5442 16.7672 51.5842 16.8507C51.766 17.2247 52.1076 17.4933 52.5148 17.5841L52.7801 17.6422C52.6893 17.9726 52.6456 18.3066 52.6456 18.6407H51.1044V18.6443Z" fill="white"/>
<path d="M10.1018 34.5475V34.5548C10.767 38.2255 11.7485 41.8346 13.0898 45.3129C15.1326 50.6285 18.0443 55.6027 21.6829 59.9524C15.816 50.5522 13.4824 39.3221 14.1367 28.346L14.1985 27.2241C12.6281 29.5333 11.2577 31.9805 10.1018 34.5511V34.5475Z" fill="#0F2F87"/>
<path d="M5.84155 54.4588C5.84155 55.893 5.90335 57.3017 6.02694 58.6996V58.7069C10.3271 62.7189 15.2526 65.994 20.447 68.6917C17.5972 66.3062 14.9291 63.7356 12.5481 60.9761C9.94184 58.0134 7.80446 54.7892 5.9397 51.4053C5.87427 52.4183 5.84155 53.4349 5.84155 54.4588Z" fill="#0F2F87"/>
<path d="M8.66602 70.8159C9.22944 72.3844 9.86556 73.9167 10.5817 75.4017C14.1585 75.8955 17.7353 76.3094 21.3085 76.6579C17.0338 74.8171 12.8172 72.8601 8.66965 70.8159H8.66602Z" fill="#0F2F87"/>
<path d="M14.4348 82.0498C15.1 83.0192 15.8052 83.956 16.5358 84.871C19.5456 84.3518 23.0716 83.7527 23.7259 83.6401C22.8644 83.4876 17.6154 82.5944 14.4348 82.0498Z" fill="#0F2F87"/>
<path d="M20.7668 89.4999C21.4284 90.1353 22.1082 90.7526 22.8061 91.3516C24.7072 90.5238 26.7246 89.6524 27.2335 89.4346C26.5029 89.4382 23.155 89.4781 20.7668 89.4999Z" fill="#0F2F87"/>
<path d="M27.4553 94.8777C27.8843 95.1717 28.3168 95.455 28.7603 95.7273C29.8944 94.943 31.0285 94.1587 31.3048 93.9663C30.894 94.0643 29.0256 94.5073 27.4553 94.8777Z" fill="#0F2F87"/>
<path d="M98.9486 34.5475V34.5548C98.2833 38.2255 97.3019 41.8346 95.9606 45.3129C93.9177 50.6285 91.0061 55.6027 87.3674 59.9524C93.2343 50.5522 95.568 39.3221 94.9137 28.346L94.8519 27.2241C96.4222 29.5333 97.7926 31.9805 98.9486 34.5511V34.5475Z" fill="#0F2F87"/>
<path d="M103.209 54.4588C103.209 55.893 103.147 57.3017 103.023 58.6996V58.7069C98.7231 62.7189 93.7977 65.994 88.6033 68.6917C91.4531 66.3062 94.1212 63.7356 96.5021 60.9761C99.1084 58.0134 101.246 54.7892 103.111 51.4053C103.176 52.4183 103.209 53.4349 103.209 54.4588Z" fill="#0F2F87"/>
<path d="M100.384 70.8159C99.8211 72.3844 99.1849 73.9167 98.4688 75.4017C94.892 75.8955 91.3151 76.3094 87.7419 76.6579C92.0167 74.8171 96.2333 72.8601 100.381 70.8159H100.384Z" fill="#0F2F87"/>
<path d="M94.6155 82.0498C93.9503 83.0192 93.2451 83.956 92.5145 84.871C89.5047 84.3518 85.9788 83.7527 85.3245 83.6401C86.186 83.4876 91.4349 82.5944 94.6155 82.0498Z" fill="#0F2F87"/>
<path d="M88.2836 89.4999C87.622 90.1353 86.9422 90.7526 86.2443 91.3516C84.3432 90.5238 82.3258 89.6524 81.8169 89.4346C82.5475 89.4382 85.8954 89.4781 88.2836 89.4999Z" fill="#0F2F87"/>
<path d="M81.5951 94.8777C81.1661 95.1717 80.7336 95.455 80.2901 95.7273C79.156 94.943 78.0219 94.1587 77.7456 93.9663C78.1527 94.0643 80.0247 94.5073 81.5951 94.8777Z" fill="#0F2F87"/>
<path d="M67.1821 77.039C67.1821 84.0211 61.5188 89.6852 54.5287 89.6852C47.5386 89.6852 41.8752 84.0211 41.8752 77.039C41.8752 74.5374 42.5986 72.21 43.8563 70.2457C44.9468 71.0627 46.0955 71.8578 47.3059 72.6239C47.0769 72.9943 46.957 73.4336 46.9897 73.9056C47.0624 74.9767 47.9166 75.8554 48.9853 75.9425C50.1958 76.0478 51.2208 75.1692 51.3517 74.0145C48.3637 72.1047 45.6484 70.0134 43.2456 67.7731C43.0094 67.5553 42.7804 67.3338 42.5514 67.1087C42.8894 64.7305 43.3401 62.4794 43.8963 60.3989L47.4513 66.5532C49.4724 65.1916 51.9042 64.3965 54.5287 64.3965C57.1532 64.3965 59.585 65.1916 61.606 66.5532L65.1611 60.3989C65.7172 62.4794 66.1716 64.7305 66.506 67.1087C66.277 67.3338 66.048 67.5553 65.8117 67.7731C63.409 70.0097 60.6936 72.1047 57.7057 74.0145C57.8365 75.1692 58.8616 76.0478 60.0721 75.9425C61.1408 75.8554 61.995 74.9767 62.0677 73.9056C62.1004 73.4372 61.9804 72.9943 61.7514 72.6239C62.9619 71.8578 64.1142 71.0627 65.2047 70.2457C66.4588 72.2064 67.1821 74.5374 67.1821 77.039Z" fill="white"/>
<path d="M48.3745 73.2954C48.898 73.6113 49.4287 73.9235 49.9703 74.2285C49.8103 74.5045 49.5123 74.6933 49.1669 74.6933C48.658 74.6933 48.2437 74.2794 48.2437 73.771C48.2437 73.5968 48.2909 73.437 48.3745 73.299V73.2954Z" fill="white"/>
<path d="M60.6754 73.2954C60.1519 73.6113 59.6212 73.9235 59.0796 74.2285C59.2395 74.5045 59.5376 74.6933 59.8829 74.6933C60.3918 74.6933 60.8062 74.2794 60.8062 73.771C60.8062 73.5968 60.759 73.437 60.6754 73.299V73.2954Z" fill="white"/>
<path d="M52.4021 78.7998L54.5249 83.6397L56.6478 78.7998L54.5249 77.0425L52.4021 78.7998Z" fill="#0F2F87"/>
</g>
<defs>
<clipPath id="clip0_4098_528">
<rect width="110" height="109" fill="white"/>
</clipPath>
</defs>
</svg>
