<svg width="250" height="166" viewBox="0 0 250 166" fill="none" xmlns="http://www.w3.org/2000/svg">
<g clip-path="url(#clip0_4100_626)">
<path d="M100 96.8V111.9H97.4V105.3H89.7V111.9H87.1V96.8H89.7V103H97.4V96.8H100Z" fill="black"/>
<path d="M114.2 110V112.1C114 112.1 113.8 112.1 113.3 112.1C111.8 112.1 111.2 111.7 111 110.2C110.1 111.5 108.7 112.3 106.7 112.3C104.4 112.3 102.9 110.8 102.9 108.7C102.9 105.7 105.7 105.1 108 104.7C109.7 104.5 110.8 104.3 110.8 103.4C110.8 102.3 109.7 101.7 108.2 101.7C106.9 101.7 105.6 102.3 104.6 103.4L103.1 101.9C104.6 100.6 106.3 99.8 108.2 99.8C111.2 99.8 112.9 101.3 112.9 103.8V109.1C112.9 109.5 113.1 110 113.8 110H114.2ZM110.8 107.4V105.9C110.4 106.1 109.7 106.3 108.5 106.5C107 106.7 105.5 106.9 105.5 108.6C105.5 109.7 106.1 110.3 107.4 110.3C109.1 110.2 110.8 108.9 110.8 107.4Z" fill="black"/>
<path d="M129.1 110V114.9H126.8V112.1H117V100.2H119.3V110H125V100.2H127.3V110H129.1Z" fill="black"/>
<path d="M131.7 95.9H134.3V98.2H131.7V95.9ZM131.9 100H134.2V111.9H131.9V100Z" fill="black"/>
<path d="M137.4 106.1C137.4 102.5 140 99.9 143.6 99.9C147.2 99.9 149.8 102.2 149.8 106.1C149.8 109.7 147.2 112.3 143.6 112.3C139.8 112.3 137.4 109.8 137.4 106.1ZM147 106.1C147 103.5 145.5 101.8 143.4 101.8C141.3 101.8 139.8 103.5 139.8 106.1C139.8 108.7 141.3 110.4 143.4 110.4C145.5 110.4 147 108.5 147 106.1Z" fill="black"/>
<path d="M162.9 100V111.9H160.6V107H154.9V112.1H152.6V100.2H154.9V104.9H160.6V100H162.9Z" fill="black"/>
<path d="M177 110V112.1C176.8 112.1 176.6 112.1 176.1 112.1C174.6 112.1 174 111.7 173.8 110.2C172.9 111.5 171.5 112.3 169.5 112.3C167.2 112.3 165.7 110.8 165.7 108.7C165.7 105.7 168.5 105.1 170.8 104.7C172.5 104.5 173.6 104.3 173.6 103.4C173.6 102.3 172.5 101.7 171 101.7C169.7 101.7 168.4 102.3 167.4 103.4L165.9 101.9C167.4 100.6 169.1 99.8 171 99.8C174 99.8 175.7 101.3 175.7 103.8V109.1C175.7 109.5 175.9 110 176.6 110H177ZM173.6 107.4V105.9C173.2 106.1 172.5 106.3 171.3 106.5C169.8 106.7 168.3 106.9 168.3 108.6C168.3 109.7 168.9 110.3 170.2 110.3C171.9 110.2 173.6 108.9 173.6 107.4Z" fill="black"/>
<path d="M190.2 112.1H187.9V102.3H183V106.6C183 111.1 182.1 112.3 179.8 112.3C179.4 112.3 178.9 112.3 178.7 112.3V110.2H179.3C180.4 110.2 180.6 110 180.6 106.6V100.4H190.4V112.1H190.2Z" fill="black"/>
<path d="M203.8 108.3C203.8 110.6 202.1 112.1 199.5 112.1H193.8V100.2H196.1V104.7H199.3C202.3 104.7 203.8 105.9 203.8 108.3ZM201.4 108.3C201.4 107.2 200.8 106.6 199.3 106.6H196.3V110.2H199.3C200.6 110 201.4 109.3 201.4 108.3Z" fill="black"/>
<path d="M217.2 100V111.9H214.9V107H209.2V112.1H206.9V100.2H209.2V104.9H214.9V100H217.2Z" fill="black"/>
<path d="M226.1 110.2C227.8 110.2 229.1 109.6 229.7 108.7L231.4 110.2C230.3 111.5 228.6 112.3 226.3 112.3C222.3 112.3 220.1 109.7 220.1 106.1C220.1 102.5 222.4 99.9 226.1 99.9C229.8 99.9 231.8 102.2 231.8 106.1C231.8 106.3 231.8 106.5 231.8 107H222.7C222.7 108.9 224 110.2 226.1 110.2ZM222.5 104.9H229.3C228.9 103 227.8 101.7 225.9 101.7C224 101.9 222.7 103 222.5 104.9Z" fill="black"/>
<path d="M87 120.6H89.6V122.9H87V120.6ZM87 124.7H89.3V136.6H87V124.7Z" fill="black"/>
<path d="M104 124.7V136.6H101.7V131.5H96V136.6H93.7V124.7H96V129.6H101.7V124.7H104Z" fill="black"/>
<path d="M125.7 130.6C125.7 134.2 123.8 136.8 121 136.8C119.5 136.8 118.4 136.2 117.6 135.1V140.6H115.3V135.1C114.4 136.2 113.4 136.8 111.9 136.8C108.9 136.8 107.2 134.5 107.2 130.6C107.2 127 109.1 124.4 111.9 124.4C113.4 124.4 114.5 124.8 115.3 125.9V120.4H117.6V126.1C118.5 125 119.5 124.4 121 124.4C123.8 124.4 125.7 127 125.7 130.6ZM115.3 130.6C115.3 128 114.2 126.3 112.3 126.3C110.6 126.3 109.3 128 109.3 130.6C109.3 133.2 110.4 134.9 112.3 134.9C114 134.9 115.3 133.2 115.3 130.6ZM123.2 130.6C123.2 128 122.1 126.3 120.2 126.3C118.5 126.3 117.2 128 117.2 130.6C117.2 133.2 118.3 134.9 120.2 134.9C122.1 134.9 123.2 133.2 123.2 130.6Z" fill="black"/>
<path d="M127.6 130.6C127.6 127 130.2 124.4 133.8 124.4C137.4 124.4 140 126.7 140 130.6C140 134.2 137.4 136.8 133.8 136.8C130 136.8 127.6 134.4 127.6 130.6ZM137.4 130.6C137.4 128 135.9 126.3 133.8 126.3C131.7 126.3 130.2 128 130.2 130.6C130.2 133.2 131.7 134.9 133.8 134.9C135.9 134.9 137.4 133.2 137.4 130.6Z" fill="black"/>
<path d="M154.2 130.6C154.2 134.2 152.1 136.8 148.9 136.8C147.2 136.8 145.9 136.2 144.9 135.1V140.6H142.6V124.6H144.7L144.9 126.5C146 125.2 147.2 124.4 148.9 124.4C152.3 124.4 154.2 126.8 154.2 130.6ZM151.9 130.6C151.9 128 150.6 126.3 148.5 126.3C146.4 126.3 145.1 128 145.1 130.6C145.1 133.2 146.4 134.9 148.5 134.9C150.6 134.9 151.9 133.2 151.9 130.6Z" fill="black"/>
<path d="M171.2 136.6H168.9V127L165.5 136.6H162.9L159.5 127V136.6H157.2V124.7H160.8L164.2 134.1L167.6 124.7H171.2V136.6Z" fill="black"/>
<path d="M185.3 134.7V136.8C185.1 136.8 184.9 136.8 184.4 136.8C182.9 136.8 182.3 136.4 182.1 134.9C181.2 136.2 179.8 137 177.8 137C175.5 137 174 135.5 174 133.4C174 130.4 176.8 129.8 179.1 129.4C180.8 129.2 181.9 129 181.9 128.1C181.9 127 180.8 126.4 179.3 126.4C178 126.4 176.7 127 175.7 128.1L174.2 126.6C175.7 125.3 177.4 124.5 179.3 124.5C182.3 124.5 184 126 184 128.5V133.8C184 134.2 184.2 134.7 184.9 134.7H185.3ZM181.9 132.1V130.6C181.5 130.8 180.8 131 179.6 131.2C178.1 131.4 176.6 131.6 176.6 133.3C176.6 134.4 177.2 135 178.5 135C180.2 134.9 181.9 133.6 181.9 132.1Z" fill="black"/>
<path d="M200 134.4V139.3H197.7V136.5H188V124.6H190.3V134.4H196V124.6H198.3V134.4H200Z" fill="black"/>
<path d="M202.7 120.6H205.3V122.9H202.7V120.6ZM202.9 124.7H205.2V136.6H202.9V124.7Z" fill="black"/>
<path d="M220 124.7V136.6H217.7V127.9L212 136.6H209.4V124.7H211.7V133.4L217.4 124.7H220ZM211 120.6L212.9 120.2C213.1 121.3 213.8 121.7 214.6 121.7C215.7 121.7 216.3 121.1 216.3 120.2L218.2 120.6C218 122.3 216.7 123.4 214.6 123.4C212.5 123.4 211 122.5 211 120.6Z" fill="black"/>
<path d="M234.4 124.7V136.6H232.1V131.5H226.4V136.6H224V124.7H226.3V129.6H232V124.7H234.4Z" fill="black"/>
<path d="M243.3 134.9C245 134.9 246.3 134.3 246.9 133.4L248.6 134.9C247.5 136.2 245.8 137 243.5 137C239.5 137 237.3 134.4 237.3 130.8C237.3 127.2 239.6 124.6 243.3 124.6C246.9 124.6 249 126.9 249 130.8C249 131 249 131.2 249 131.7H239.9C239.9 133.4 241.2 134.9 243.3 134.9ZM239.7 129.5H246.5C246.1 127.6 245 126.3 243.1 126.3C241.2 126.3 239.9 127.6 239.7 129.5Z" fill="black"/>
<path d="M92.1 161.5C88.5 161.5 86.1 158.7 86.1 154.7C86.1 150 87.8 147.7 91.4 146.8L94.2 146.2C94.6 146.2 94.8 145.8 95.1 145.3V144.9L97.4 145.3V145.7C97.2 147 96.5 147.8 95.1 148.3L91.7 148.9C89.6 149.3 88.5 150.4 88.3 152.3C89.2 151 90.6 150.4 92.8 150.4C95.8 150.4 97.9 152.7 97.9 155.7C97.9 159.1 95.5 161.5 92.1 161.5ZM95.3 155.9C95.3 153.8 94 152.3 91.9 152.3C89.8 152.3 88.5 153.6 88.5 155.7C88.5 157.8 89.8 159.3 91.9 159.3C94 159.3 95.3 158 95.3 155.9Z" fill="black"/>
<path d="M117.2 155.3C117.2 158.9 114.9 161.5 111.2 161.5C108 161.5 105.7 159.4 105.5 156.2H103V161.3H100.7V149.4H103V154.3H105.6C106 151.3 108.4 149.2 111.3 149.2C114.9 149.1 117.2 151.5 117.2 155.3ZM114.7 155.3C114.7 152.7 113.4 151 111.3 151C109.2 151 107.9 152.7 107.9 155.3C107.9 157.9 109.2 159.6 111.3 159.6C113.4 159.3 114.7 157.8 114.7 155.3Z" fill="black"/>
<path d="M131.7 155.3C131.7 158.9 129.6 161.5 126.4 161.5C124.7 161.5 123.4 160.9 122.4 159.8V165.3H120V149.3H122.1L122.3 151.2C123.4 149.9 124.6 149.1 126.3 149.1C129.5 149.1 131.7 151.5 131.7 155.3ZM129.3 155.3C129.3 152.7 128 151 125.9 151C123.8 151 122.5 152.7 122.5 155.3C122.5 157.9 123.8 159.6 125.9 159.6C127.8 159.3 129.3 157.8 129.3 155.3Z" fill="black"/>
<path d="M133.6 155.3C133.6 151.7 136.2 149.1 139.8 149.1C143.4 149.1 146 151.4 146 155.3C146 158.9 143.4 161.5 139.8 161.5C136.1 161.5 133.6 158.9 133.6 155.3ZM143.4 155.3C143.4 152.7 141.9 151 139.8 151C137.7 151 136.2 152.7 136.2 155.3C136.2 157.9 137.7 159.6 139.8 159.6C141.9 159.5 143.4 157.8 143.4 155.3Z" fill="black"/>
<path d="M156.3 6.2C150.2 0 140.8 0 123.8 0C106.8 0 97.4 0 91.3 6.2C85.1 12.4 85.1 21.7 85.1 38.7C85.1 55.7 85.1 65.1 91.3 71.2C97.5 77.3 106.8 77.4 123.8 77.4C140.8 77.4 150.2 77.4 156.3 71.2C162.5 65 162.5 55.7 162.5 38.7C162.5 21.7 162.5 12.3 156.3 6.2ZM131 53.2L129.9 59.2H115L116.1 53.2H119.9L122.9 36.6H118.9L120 30.6H131L127 53.1C127 53.2 131 53.2 131 53.2ZM131.5 26H122.6L123.9 18.6H132.8L131.5 26Z" fill="black"/>
<path d="M37.4001 65.1C34.6001 63 32.5 59.8 31.9 56H22.8V16.8C27.7 19.1 31.3 24.7 31.5 30.2L32.8 41.3H32.2001C30.7001 41.3 29.4 42.6 29.4 44.1C29.4 45.4 30.5001 46.4 31.7001 46.7L33.4001 47.1C36.2001 42 37.7001 36.9 37.7001 31.8C37.7001 27.3 37.1 22.9 37.1 18.2C37.1 16.1 38.0001 14.4 39.2001 12.9C40.5001 14.4 41.3 16.3 41.3 18.2C41.3 22.9 40.7001 27.3 40.7001 31.8C40.7001 36.7 42.2 41.8 45 47.1L46.7001 46.7C48.0001 46.5 49 45.4 49 44.1C49 42.8 47.7001 41.3 46.2001 41.3H45.6L46.9001 30.2C47.5001 24.7 50.7 19.4 55.6 16.8V56.2H46.5C45.9 59.8 43.9 63.2 41 65.3C40.4 65.7 39.7 66.4 39.3 67.2C38.7 66.2 38.1001 65.7 37.4001 65.1ZM27 42.5C27.4 41 28.5 39.7 29.8 38.9L28.7001 29.8C28.3001 27 27.2 24.5 25.3 22.4V42.4H27V42.5ZM31.7001 53.4C31.7001 52.1 31.9 50.8 32.1 49.6L30.8 49.4C28.9 48.8 27.4 47.3 27 45.6H25.5V53.7H31.7001V53.4ZM37.7001 53.4C37.7001 51.7 36.4001 50.2 34.7001 50C34.5001 51.1 34.3 52.1 34.3 53.4H37.7001ZM37.7001 56.2H34.7001C35.1001 58.3 36.2001 60.2 37.7001 61.9V56.2ZM42.1 47.6C40.8 45.5 39.8 43.1 39.1 40.8C38.5 43.1 37.4 45.5 36.1 47.6C37.2 47.8 38.2 48.7 39.1 49.5C40 48.7 40.8 47.9 42.1 47.6ZM43.8 53.4C43.8 52.1 43.6001 51.1 43.4001 50C41.7001 50.2 40.4001 51.7 40.4001 53.4H43.8ZM43.6 56.2H40.6V61.9C41.9 60.2 43 58.3 43.6 56.2ZM52.8 53.4V45.3H51.3C50.9 47.2 49.4 48.7 47.5 49.1L46.2001 49.3C46.4001 50.6 46.6 51.9 46.6 53.1H52.8V53.4ZM52.8 42.5V22.5C51.1 24.6 49.8001 27.2 49.4001 29.9L48.3 39C49.6 39.9 50.6 41.1 51.1 42.6H52.8V42.5Z" fill="black"/>
<path d="M38.7 1.1C55.3 1.1 64.4 1.1 70.4 6.8C76.1 12.5 76.1 21.7 76.1 38.5C76.1 55.3 76.1 64.2 70.4 70.2C64.7 75.9 55.5 75.9 38.7 75.9C21.9 75.9 13 75.9 7 70.2C1.3 64.5 1.3 55.3 1.3 38.5C1.3 21.7 1.3 12.8 7 6.8C13 1.1 22.1 1.1 38.7 1.1ZM38.7 0C21.7 0 12.3 0 6.2 6.2C0 12.3 0 21.7 0 38.7C0 55.7 0 65.1 6.2 71.2C12.4 77.4 21.7 77.4 38.7 77.4C55.7 77.4 65.1 77.4 71.2 71.2C77.4 65 77.4 55.7 77.4 38.7C77.4 21.7 77.4 12.3 71.2 6.2C65.1 0 55.7 0 38.7 0Z" fill="black"/>
</g>
<defs>
<clipPath id="clip0_4100_626">
<rect width="249.1" height="165.3" fill="white"/>
</clipPath>
</defs>
</svg>
